<svg xmlns="http://www.w3.org/2000/svg" aria-hidden="true" style="position:absolute;width:0;height:0;overflow:hidden">
  <defs>
    <symbol id="icon-arrow" viewBox="0 0 32 32">
      <path stroke-linecap="round" stroke-linejoin="round" stroke-width=".533" d="m13.484 22.741 6.591-6.742-6.742-6.591"/>
    </symbol>
    <symbol id="icon-arrow-hover" viewBox="0 0 32 32">
      <path stroke-width=".533" d="M31.467 16c0 8.542-6.925 15.467-15.467 15.467S.533 24.542.533 16C.533 7.458 7.458.533 16 .533S31.467 7.458 31.467 16z"/>
      <path stroke-linecap="round" stroke-linejoin="round" stroke-width=".533" d="m13.484 22.741 6.591-6.742-6.742-6.591"/>
    </symbol>
    <symbol id="icon-brush" viewBox="0 0 32 32">
      <path fill="none" stroke="#95140e" stroke-width=".5" d="M4.596 21.879a2.942 2.942 0 0 1 2.507-.852c.909.114 1.848.603 2.655 1.395.807.794 1.303 1.717 1.418 2.607a2.813 2.813 0 0 1-.734 2.324l-.13.135c-1.792 1.762-4.516 2.776-6.625 3.144-1.057.184-1.926.2-2.427.084-.265-.061-.351-.141-.367-.172-.003-.005-.008-.015.001-.045a.524.524 0 0 1 .117-.185c1.656-1.863 1.96-3.435 2.156-4.819.189-1.331.279-2.422 1.323-3.51l.104-.105zM31.052 1.218a.094.094 0 0 1 .028.01l.007.004.004.006a.105.105 0 0 1 .009.025.414.414 0 0 1 .005.136 2.146 2.146 0 0 1-.155.555c-.187.473-.53 1.102-.998 1.85-.934 1.492-2.341 3.416-3.92 5.433-2.961 3.783-6.505 7.869-8.615 10.015l-.402.402c-1.514 1.487-2.496 2.228-3.239 2.766l-.675.491a.361.361 0 0 1-.066.04.426.426 0 0 1-.04-.061l-.033-.065-.038-.076c-.427-.814-.831-1.388-1.58-2.122a7.922 7.922 0 0 0-2.159-1.553h.001c-.025-.013-.054-.026-.076-.036a1.014 1.014 0 0 1-.066-.033c-.028-.014-.046-.027-.059-.036a.364.364 0 0 1 .038-.057h-.001c.589-.757 1.211-1.731 2.95-3.485l.363-.361c2.037-2.003 6.493-5.76 10.597-8.864 2.052-1.552 4.009-2.936 5.527-3.854.761-.46 1.401-.797 1.883-.981.242-.093.431-.141.567-.153a.454.454 0 0 1 .142.005z" style="stroke:var(--color1, #95140e)"/>
    </symbol>
    <symbol id="icon-classical-building" viewBox="0 0 32 32">
      <path fill="none" stroke="#95140e" stroke-linecap="round" stroke-linejoin="round" stroke-width=".5" d="M16.003 3.699 7.269 8.708h17.468l-8.734-5.009zM3.667 26.249h24.667V28.3H3.667v-2.051zM4.792 8.713h22.427v2.055H4.792V8.713zm.56 15.414h21.307v2.051H5.352v-2.051zm1.583-13.358h2.208v13.358H6.935V10.769zm4.624 0h2.208v13.358h-2.208V10.769zm11.302 0h2.209v13.358h-2.209V10.769zm-4.624 0h2.209v13.358h-2.209V10.769z" style="stroke:var(--color1, #95140e)"/>
    </symbol>
    <symbol id="icon-cross" viewBox="0 0 32 32">
      <path fill="none" stroke="#fff" stroke-linecap="round" stroke-linejoin="round" stroke-width="2.667" d="m4 4 24 24M4 28 28 4" style="stroke:var(--color2, #fff)"/>
    </symbol>
    <symbol id="icon-hammer" viewBox="0 0 32 32">
      <path fill="none" stroke="#95140e" stroke-width=".5" d="M16.358 5.195c1.458-1.276 3.596-1.263 5.017.033l.141.136L26.139 10l-2.146 2.131h4.29l.697.697-4.382 4.431-.695-.695v-4.326l-2.207 2.132-.95-.949-15.24 15.24-2.486-2.486 15.241-15.241-.947-.934 1.891-1.904-2.846-2.899z" style="stroke:var(--color1, #95140e)"/>
    </symbol>
    <symbol id="icon-logo" viewBox="0 0 32 32">
      <path fill="#fffaef" d="M16.003 3.841 7.269 8.85h17.468l-8.734-5.009zM3.667 26.391h24.667v2.051H3.667v-2.051zM4.792 8.855h22.427v2.055H4.792V8.855zm.56 15.414h21.307v2.051H5.352v-2.051zM6.935 10.91h2.208v13.358H6.935V10.91zm4.624 0h2.208v13.358h-2.208V10.91zm11.302 0h2.209v13.358h-2.209V10.91zm-4.624 0h2.209v13.358h-2.209V10.91z" style="fill:var(--color3, #fffaef)"/>
      <path fill="#95140e" d="M18.944 17.897c-.657.659-.102 1.335-.974 2.336-.393.453 1.62.315 2.617-.686.423-.425.304-1.044-.15-1.5s-1.07-.575-1.493-.15zm7.27-5.711c-.336-.338-4.064 2.713-5.174 3.827-.551.553-.735.85-.903 1.071-.074.097.024.126.067.149.218.114.371.22.568.417s.303.351.416.57c.023.043.052.141.148.067.221-.169.516-.355 1.067-.907 1.11-1.114 4.148-4.857 3.811-5.195z" style="fill:var(--color1, #95140e)"/>
    </symbol>
    <symbol id="icon-menu" viewBox="0 0 32 32">
      <path fill="none" stroke="#fff" stroke-linecap="round" stroke-linejoin="round" stroke-width="2.667" d="M4 16h24M4 8h24M4 24h24" style="stroke:var(--color2, #fff)"/>
    </symbol>
    <symbol id="icon-mosaic" viewBox="0 0 32 32">
      <path fill="none" stroke="#95140e" stroke-width=".5" d="M6.667 4.25h18.667c.601 0 1.179.224 1.622.625l.086.083c.453.453.708 1.068.708 1.708v18.667a2.42 2.42 0 0 1-2.417 2.417H6.666a2.418 2.418 0 0 1-1.622-.625l-.086-.083a2.418 2.418 0 0 1-.708-1.709V6.666c0-.601.224-1.179.625-1.622l.083-.086a2.417 2.417 0 0 1 1.708-.708zm-.25 21.334h8.5v-8.5h-8.5v8.5zm10.667 0h8.5v-8.5h-8.5v8.5zm-4-6.668v4.834H8.25v-4.834h4.834zm-6.667-4h8.5v-8.5h-8.5v8.5zm10.667 0h8.5v-8.5h-8.5v8.5zM23.75 8.25v4.834h-4.834V8.25h4.834z" style="stroke:var(--color1, #95140e)"/>
    </symbol>
    <symbol id="icon-triangular-ruler" viewBox="0 0 32 32">
      <path fill="none" stroke="#95140e" stroke-width=".5" d="M29.983 1.322 1.322 29.984c-.56.559-.369 1.017.421 1.017h.369v-1.25h.471v1.25h.923v-1.25h.471v1.25H4.9v-1.25h.471v1.25h.923v-2.349h.471v2.349h1v-1.25h.472v1.25h.923v-1.25h.471v1.25h.924v-1.25h.472v1.25h.923v-2.349h.47v2.349h1.002v-1.25h.471v1.25h.924v-1.25h.472v1.25h.922v-1.25h.472v1.25h.924v-2.349h.471v2.349h1.002v-1.25h.471v1.25h.923v-1.25h.472v1.25h.923v-1.25h.471v1.25h.924v-2.349h.471v2.349h1.001v-1.25h.471v1.25h.923v-1.25h.471v1.25h.923v-1.25h.471v1.25h.924v-2.349h.471v2.349h.17a1.442 1.442 0 0 0 1.441-1.439V1.744c0-.791-.459-.982-1.018-.421zm-5.624 21.597a1.44 1.44 0 0 1-1.439 1.439h-5.137c-.791 0-.98-.458-.422-1.017l5.98-5.98c.559-.559 1.018-.369 1.018.422v5.136z" style="stroke:var(--color1, #95140e)"/>
    </symbol>
  </defs>
</svg>
